<svg width="640" height="640" viewBox="0 0 640 640" xmlns="http://www.w3.org/2000/svg" role="img" aria-label="Portrait of Wenduo Cheng">
  <defs>
    <linearGradient id="bg" x1="0" y1="0" x2="0" y2="1">
      <stop offset="0%" stop-color="#f3f5f8"/>
      <stop offset="100%" stop-color="#d9dee5"/>
    </linearGradient>
  </defs>
  <rect width="640" height="640" fill="url(#bg)" rx="42"/>
  <circle cx="320" cy="260" r="160" fill="#f6e1d5" stroke="#e5c7b4" stroke-width="6"/>
  <path d="M270 450c-86 16-150 76-150 156h400c0-80-64-140-150-156" fill="#0f4c81"/>
  <path d="M320 330c-74 0-134 62-134 138v30c28 22 80 36 134 36s106-14 134-36v-30c0-76-60-138-134-138z" fill="#1f6aa5"/>
  <path d="M320 126c-52 0-94 42-94 94 0 14 3 28 9 40l12 24c8 16 28 28 73 28 42 0 64-12 72-28l12-24c6-12 10-26 10-40 0-52-42-94-94-94z" fill="#f6e1d5"/>
  <path d="M226 250c22-40 8-78 24-94 17-18 44-24 70-24 36 0 74 14 92 46 5 9-6 76-10 92-22 10-64 16-94 16-38 0-63-12-82-36z" fill="#111" fill-opacity="0.08"/>
  <path d="M240 220c0-56 36-102 80-102s82 30 82 86c0 8-2 18-4 26-12-10-30-16-54-16 0 0-22 10-40 10-20 0-34-8-54-10-6 0-8 0-10 6z" fill="#0f1012"/>
  <path d="M286 214c-14 8-32 4-44-6 0 10 4 22 10 32 6 10 14 20 26 24 10 4 24 6 42 6 20 0 34-4 44-10 14-8 26-22 32-36 4-8 6-16 6-26-12 10-30 14-44 8-26 10-52 10-72 -2z" fill="#f6e1d5"/>
  <ellipse cx="280" cy="238" rx="12" ry="8" fill="#0f1012"/>
  <ellipse cx="360" cy="238" rx="12" ry="8" fill="#0f1012"/>
  <path d="M296 270c10 10 38 10 48 0" stroke="#c48d7d" stroke-width="8" stroke-linecap="round" fill="none"/>
  <path d="M308 298c10 12 18 18 30 0" stroke="#c48d7d" stroke-width="8" stroke-linecap="round" fill="none"/>
  <path d="M276 156c12-14 32-24 54-24 18 0 42 6 58 18 6 4-24-38-72-38-22 0-32 6-40 12-8 6-12 18-12 32-6 0-6-4-12 0z" fill="#0f1012"/>
  <rect x="256" y="410" width="128" height="36" rx="8" fill="#f5f7fb"/>
  <text x="320" y="436" text-anchor="middle" font-family="'Helvetica Neue', Arial, sans-serif" font-size="22" fill="#0f4c81">Wenduo Cheng</text>
</svg>
